<svg xmlns="http://www.w3.org/2000/svg" viewBox="0 0 371.83 68.19"><defs><style>.cls-1{fill:#ffffff;fill-rule:evenodd;}</style></defs><title>logo_agualima</title><g id="Capa_2" data-name="Capa 2"><g id="Capa_1-2" data-name="Capa 1"><path id="name" class="cls-1" d="M47.21,26.8,56.83,2.88a19.52,19.52,0,0,0-7.3,3.36A31.25,31.25,0,0,0,43.32,12a66.72,66.72,0,0,0-4.8,6.73q-2.25,3.59-4.7,8.07ZM32.9,28.41c-.23.47-1,2-2.38,4.63s-3.05,5.66-5.09,9.12A28.4,28.4,0,0,1,19,50.06a13.46,13.46,0,0,1-8.7,2.7A10.9,10.9,0,0,1,3,50.2a8.73,8.73,0,0,1-3-7,9.18,9.18,0,0,1,2.77-6.77,9.38,9.38,0,0,1,6.91-2.78A9.45,9.45,0,0,1,16.1,36a7.8,7.8,0,0,1,2.63,6.21,8.33,8.33,0,0,1-.56,3.09,5.42,5.42,0,0,1-1.3,2.07A17,17,0,0,1,14.7,48.9c-1,.61-1.44,1.14-1.44,1.61a1.4,1.4,0,0,0,.77.42,7.16,7.16,0,0,0,3.75-1.61,19.17,19.17,0,0,0,4.6-5.09,96,96,0,0,0,4.95-8.49q2.63-5,6.8-12.27T40.8,12.52q2.49-3.67,8.8-7.89T65.24.42c2.48,0,4.42,0,5.83.14s2.64.21,3.72.35l-17,42.24q-1.76,4.41-1.76,5.61,0,1.68,2,1.86c1.35.11,3.16.17,5.4.17v1.13H29.54V50.79c.56,0,1.22,0,2-.1l2.87-.28a4.46,4.46,0,0,0,3-1.55A24.88,24.88,0,0,0,40.55,43l6-14.6Zm66-5.75a2.75,2.75,0,0,0-.49-1.79,1.89,1.89,0,0,0-1.55-.6c-.79,0-1.74.7-2.84,2.07a44.44,44.44,0,0,0-4.1,6.88c-1.64,3.19-3.4,7.1-5.3,11.7s-2.84,7.52-2.84,8.74a1.49,1.49,0,0,0,.28,1,1,1,0,0,0,.84.35,5.65,5.65,0,0,0,4.21-2.16A34.81,34.81,0,0,0,90,45.34a44.21,44.21,0,0,0,2.66-5.12q1.78-3.82,4-9.36t2.25-8.2Zm16.56-4H102l-2.18,5.12.07-1.19A3.86,3.86,0,0,0,98.18,19,7.69,7.69,0,0,0,94.08,18q-9.42,0-16.74,8.21T70,42.74a9.54,9.54,0,0,0,2.81,7.15,9.7,9.7,0,0,0,7,2.75,10.52,10.52,0,0,0,6.67-2.15,22.71,22.71,0,0,0,5.14-6l.21.07q-2.33,5.25-4.81,10.7a34.3,34.3,0,0,1-5.38,8.64,8.65,8.65,0,0,1-6.6,3.19,6.5,6.5,0,0,1-2.56-.39c-.59-.25-.88-.55-.88-.87s.26-.57.77-.57a5.5,5.5,0,0,0,4.07-1.54A5.12,5.12,0,0,0,78,59.92a5.56,5.56,0,0,0-1.9-4.27,6.54,6.54,0,0,0-4.59-1.76,6.27,6.27,0,0,0-4.9,2,6.58,6.58,0,0,0-1.8,4.53,6.77,6.77,0,0,0,3,5.46,11.52,11.52,0,0,0,7.27,2.31q10.89,0,17.64-5.26t10.89-14.87q4.14-9.62,6.84-16.46t5-12.94Zm8.49,34a8.32,8.32,0,0,1-5.65-2q-2.35-2-2.35-6.17a12.46,12.46,0,0,1,.84-4.21q.84-2.31,2.28-5.4t4-7.83c1.69-3.15,2.53-5,2.53-5.64a1.37,1.37,0,0,0-.25-.92,1,1,0,0,0-.8-.28,3.5,3.5,0,0,0-1.86.85,15.73,15.73,0,0,0-2.32,2.1,29.68,29.68,0,0,0-2.66,3.51,48,48,0,0,0-2.63,4.35l-.92-.42a58.61,58.61,0,0,1,6.35-9.26A10.26,10.26,0,0,1,128.6,18a6.79,6.79,0,0,1,5.54,2.28A8.36,8.36,0,0,1,136,25.75a13.94,13.94,0,0,1-1.12,5.47q-1,2.18-2.07,4.42t-3.54,6.94c-1.69,3.14-2.53,5.31-2.53,6.53a1.52,1.52,0,0,0,.32,1,1.12,1.12,0,0,0,.87.35c1.13,0,2.32-.78,3.58-2.35a46.44,46.44,0,0,0,3.16-4.35,40.34,40.34,0,0,0,2.24-4l10.18-21.12H160.8L148.87,45.32c-.23.61-.51,1.33-.84,2.18a5.72,5.72,0,0,0-.49,1.82,1.13,1.13,0,0,0,.21.74.79.79,0,0,0,.63.24,4.94,4.94,0,0,0,3.75-2,43,43,0,0,0,3.27-4.25q1.53-2.28,3.29-5.36l.84.49a67.92,67.92,0,0,1-6.87,10,10.13,10.13,0,0,1-8,3.44,6.91,6.91,0,0,1-5.3-2.07,8.19,8.19,0,0,1-1.92-5.79,12.66,12.66,0,0,1,.35-3c.23-1,.42-1.73.56-2.24a69.3,69.3,0,0,1-6.63,9.89A9.67,9.67,0,0,1,124,52.62Zm83.41-34L195.24,45.32c-.14.28-.37.89-.7,1.82a7.74,7.74,0,0,0-.49,1.76,1.39,1.39,0,0,0,.25.88.86.86,0,0,0,.73.31,5.17,5.17,0,0,0,2.74-1.4,24,24,0,0,0,3.75-4A35.19,35.19,0,0,0,205.14,39l.91.42a57.35,57.35,0,0,1-4,6.49,18.37,18.37,0,0,1-5.15,4.77,13.82,13.82,0,0,1-7.44,1.93,6.78,6.78,0,0,1-5.26-1.93q-1.75-1.94-1.75-5.79a23.64,23.64,0,0,1-5.23,5.89,10.57,10.57,0,0,1-6.42,1.83,9.35,9.35,0,0,1-6.91-2.7,9.56,9.56,0,0,1-2.7-7.06q0-8.26,7.61-16.59T185.63,18A7.51,7.51,0,0,1,189.56,19a3.57,3.57,0,0,1,1.76,3.3L191.11,24l2.45-5.33Zm-17,3.79A2.5,2.5,0,0,0,190,20.8a1.83,1.83,0,0,0-1.44-.53c-.89,0-1.91.71-3,2.11A46.83,46.83,0,0,0,181,29.75c-1.82,3.5-3.65,7.39-5.47,11.64s-2.74,7-2.74,8.28a1.57,1.57,0,0,0,.28,1,1,1,0,0,0,.85.35,5.64,5.64,0,0,0,4.14-2.14,36.3,36.3,0,0,0,3-3.64,39.41,39.41,0,0,0,2.77-5.13q1.72-3.62,4.14-9.29c1.62-3.79,2.42-6.57,2.42-8.35Zm30.73-14c.56-1.4,1-2.43,1.16-3.09a5.78,5.78,0,0,0,.31-1.75,1.38,1.38,0,0,0-1.15-1.44,18.85,18.85,0,0,0-4.25-.32V.77h20.7q-2.39,5.82-5.82,14.28T223.8,35.39Q219,47.29,218.71,48a4.44,4.44,0,0,0-.24,1.47,1.24,1.24,0,0,0,.28.91.93.93,0,0,0,.7.28c1.26,0,2.54-.77,3.82-2.31a54.52,54.52,0,0,0,3.3-4.35q1.37-2,2.49-3.86l1,.49a54,54,0,0,1-6.56,9.12,9.45,9.45,0,0,1-7.12,2.88,8.34,8.34,0,0,1-6.24-2.53,8,8,0,0,1-2.46-5.75,11.76,11.76,0,0,1,.35-3,25.58,25.58,0,0,1,1.05-3L221.13,8.49Zm12.28,20.83.91.43A34.36,34.36,0,0,1,238.07,24a21.21,21.21,0,0,1,3-3.09,3.62,3.62,0,0,1,1.65-.88,1,1,0,0,1,.74.25,1,1,0,0,1,.24.74,5.2,5.2,0,0,1-.49,1.75c-.33.8-1,2.29-2.1,4.49s-2.33,4.7-3.76,7.51a66.07,66.07,0,0,0-2.8,6,11.32,11.32,0,0,0-.67,4,8.15,8.15,0,0,0,2,5.58,7.32,7.32,0,0,0,5.76,2.21c3.46,0,6-.92,7.75-2.74A58.4,58.4,0,0,0,255.72,41l-.91-.49c-.56,1-1.28,2.19-2.14,3.47s-1.7,2.42-2.49,3.41a12.48,12.48,0,0,1-2.46,2.35,4,4,0,0,1-2,.87,1.28,1.28,0,0,1-.95-.31,1.3,1.3,0,0,1-.32-1q0-1.34,2.6-5.93t4.07-7.65q1.47-3,2.31-5.36a12.41,12.41,0,0,0,.85-4.14q0-4.14-2.28-6.21A7.73,7.73,0,0,0,246.6,18a10.38,10.38,0,0,0-6.35,2.17q-2.91,2.18-6.84,9.19Zm14.31-22.8a6.14,6.14,0,0,1,2-4.7A6.66,6.66,0,0,1,254.39,0a6.78,6.78,0,0,1,4.77,1.82,6.14,6.14,0,0,1,2,4.7,6.11,6.11,0,0,1-2,4.67,6.71,6.71,0,0,1-4.73,1.86,6.56,6.56,0,0,1-4.74-1.86,6.19,6.19,0,0,1-1.93-4.67ZM324.26,40.9a51.81,51.81,0,0,1-6.63,8.75q-3,3-8.31,3a6.67,6.67,0,0,1-5.51-2.33A8.45,8.45,0,0,1,302,44.84a12.83,12.83,0,0,1,.56-4A34.72,34.72,0,0,1,304,37.16c.63-1.33,2-4,4-7.93s3-6.51,3-7.68a1.65,1.65,0,0,0-.31-1.12,1.29,1.29,0,0,0-1-.35,3.48,3.48,0,0,0-2,1,19.85,19.85,0,0,0-2.94,3.33,35.5,35.5,0,0,0-3.37,5.68Q299.7,33.4,297,39.16t-3.93,8.48q-1.26,2.73-2,4.28H277.47l3.19-7.13q2.83-6.33,5.61-12.47l3.12-6.91c.24-.52.48-1.15.74-1.9a6.05,6.05,0,0,0,.39-2,1.82,1.82,0,0,0-.32-1.16,1.15,1.15,0,0,0-.95-.38,3.46,3.46,0,0,0-2.1,1,15.37,15.37,0,0,0-2.42,2.59,40.5,40.5,0,0,0-2.42,3.58,36.64,36.64,0,0,0-2,3.65L270,51.92H256.35l12.14-26.65q.13-.36.66-1.65a6.27,6.27,0,0,0,.53-2.28,1.5,1.5,0,0,0-.28-1,1.07,1.07,0,0,0-.84-.31,4,4,0,0,0-2,.91A15.18,15.18,0,0,0,264,23.3a33.3,33.3,0,0,0-2.56,3.37q-1.26,1.89-2.74,4.55l-.84-.42q3.72-7.44,7.12-10.15A11.24,11.24,0,0,1,272,17.94a7.45,7.45,0,0,1,5.55,2.32,7.82,7.82,0,0,1,2.24,5.63,20.66,20.66,0,0,1-.14,2.59,14.06,14.06,0,0,1-.42,2.05l.21.07q3.93-7.74,6.91-10.2a10.15,10.15,0,0,1,6.56-2.46,8.92,8.92,0,0,1,6,2,6.61,6.61,0,0,1,2.35,5.31,10.62,10.62,0,0,1-.35,2.8c-.38,1-.63,1.7-.77,2.12a49.94,49.94,0,0,1,6.14-9.43c1.7-1.87,4.29-2.81,7.75-2.81a8.12,8.12,0,0,1,5.68,2Q322,22,322,26.28a11.18,11.18,0,0,1-.74,4.21q-.73,1.83-2.32,5.13t-4.07,8c-1.66,3.14-2.49,5-2.49,5.76a1.59,1.59,0,0,0,.28,1,1,1,0,0,0,.78.35c1.35,0,2.78-.82,4.28-2.48A42.63,42.63,0,0,0,321.1,44c.8-1.17,1.57-2.37,2.32-3.57l.84.49Zm47.57-22.24L359.69,45.32c-.14.28-.37.89-.7,1.82a7.74,7.74,0,0,0-.49,1.76,1.46,1.46,0,0,0,.24.88.88.88,0,0,0,.74.31,5.21,5.21,0,0,0,2.74-1.4,24.4,24.4,0,0,0,3.75-4A35.15,35.15,0,0,0,369.58,39l.91.42a57.35,57.35,0,0,1-4,6.49,18.41,18.41,0,0,1-5.16,4.77,13.76,13.76,0,0,1-7.43,1.93,6.8,6.8,0,0,1-5.27-1.93c-1.16-1.29-1.75-3.22-1.75-5.79a23.45,23.45,0,0,1-5.23,5.89,10.56,10.56,0,0,1-6.41,1.83,9.39,9.39,0,0,1-6.92-2.7,9.56,9.56,0,0,1-2.7-7.06q0-8.26,7.62-16.59T350.08,18A7.51,7.51,0,0,1,354,19a3.56,3.56,0,0,1,1.75,3.3L355.55,24,358,18.66Zm-17,3.79a2.45,2.45,0,0,0-.46-1.65,1.8,1.8,0,0,0-1.44-.53c-.88,0-1.9.71-3.05,2.11a47,47,0,0,0-4.45,7.37c-1.83,3.5-3.65,7.39-5.47,11.64s-2.74,7-2.74,8.28a1.51,1.51,0,0,0,.28,1,1,1,0,0,0,.84.35,5.64,5.64,0,0,0,4.14-2.14,36.61,36.61,0,0,0,3-3.64,40.68,40.68,0,0,0,2.77-5.13q1.71-3.62,4.14-9.29T354.85,22.45Z"/></g></g></svg>